<svg width="184" height="40" viewBox="0 0 184 40" fill="none" xmlns="http://www.w3.org/2000/svg">
<g filter="url(#filter0_d_3_11)">
<path d="M8.81479 14.8097C6.22655 13.433 4.93243 11.2715 4.93243 8.32533C4.93243 6.83846 5.31791 5.48927 6.08888 4.27775C6.85984 3.0387 8.03006 2.06122 9.59953 1.34532C11.169 0.601892 13.0964 0.230176 15.3818 0.230176C17.6671 0.230176 19.5808 0.601892 21.1227 1.34532C22.6922 2.06122 23.8624 3.0387 24.6334 4.27775C25.4043 5.48927 25.7898 6.83846 25.7898 8.32533C25.7898 9.81219 25.4319 11.1063 24.716 12.2077C24.0276 13.3091 23.0914 14.1764 21.9075 14.8097C23.3943 15.5256 24.537 16.5168 25.3355 17.7834C26.134 19.0225 26.5333 20.4818 26.5333 22.1614C26.5333 24.1164 26.0376 25.8097 25.0464 27.2415C24.0551 28.6458 22.706 29.7196 20.9988 30.4631C19.3192 31.2065 17.4469 31.5782 15.3818 31.5782C13.3167 31.5782 11.4306 31.2065 9.72343 30.4631C8.04383 29.7196 6.7084 28.6458 5.71716 27.2415C4.72592 25.8097 4.2303 24.1164 4.2303 22.1614C4.2303 20.4543 4.62955 18.9812 5.42805 17.7421C6.22655 16.4755 7.35546 15.4981 8.81479 14.8097ZM18.9337 9.39917C18.9337 8.27026 18.6033 7.40292 17.9425 6.79716C17.3092 6.16387 16.4556 5.84722 15.3818 5.84722C14.3079 5.84722 13.4406 6.16387 12.7798 6.79716C12.1465 7.43045 11.8298 8.31156 11.8298 9.44047C11.8298 10.5143 12.1602 11.3679 12.8211 12.0012C13.4819 12.6069 14.3355 12.9098 15.3818 12.9098C16.4281 12.9098 17.2817 12.5932 17.9425 11.9599C18.6033 11.3266 18.9337 10.473 18.9337 9.39917ZM15.3818 17.866C14.0877 17.866 13.0413 18.224 12.2428 18.9399C11.4443 19.6282 11.0451 20.592 11.0451 21.831C11.0451 22.9875 11.4306 23.9374 12.2015 24.6808C13 25.4243 14.0601 25.796 15.3818 25.796C16.7034 25.796 17.736 25.4243 18.4794 24.6808C19.2504 23.9374 19.6359 22.9875 19.6359 21.831C19.6359 20.6195 19.2366 19.6558 18.4381 18.9399C17.6671 18.224 16.6484 17.866 15.3818 17.866Z" fill="#FB8122"/>
<path d="M64.1772 2.00615V31H57.1146V13.612L50.6303 31H44.9306L38.4049 13.5707V31H31.3423V2.00615H39.6853L47.8217 22.0788L55.8756 2.00615H64.1772ZM90.9808 19.1051C90.9808 19.7659 90.9395 20.4543 90.8569 21.1702H74.8731C74.9832 22.602 75.4376 23.7034 76.2361 24.4743C77.0621 25.2178 78.0671 25.5895 79.2511 25.5895C81.0133 25.5895 82.2386 24.846 82.927 23.3592H90.4439C90.0584 24.8736 89.3563 26.2365 88.3375 27.448C87.3462 28.6596 86.0934 29.6095 84.579 30.2979C83.0646 30.9862 81.3713 31.3304 79.4989 31.3304C77.2411 31.3304 75.2311 30.8486 73.4688 29.8849C71.7066 28.9211 70.3299 27.5444 69.3387 25.7547C68.3474 23.9649 67.8518 21.8723 67.8518 19.4768C67.8518 17.0813 68.3337 14.9887 69.2974 13.1989C70.2886 11.4092 71.6653 10.0325 73.4275 9.06876C75.1898 8.10505 77.2135 7.62319 79.4989 7.62319C81.7292 7.62319 83.7117 8.09128 85.4464 9.02746C87.181 9.96363 88.5302 11.2991 89.4939 13.0337C90.4852 14.7684 90.9808 16.7922 90.9808 19.1051ZM83.753 17.2465C83.753 16.035 83.34 15.0713 82.5139 14.3554C81.6879 13.6395 80.6554 13.2815 79.4163 13.2815C78.2323 13.2815 77.2273 13.6257 76.4013 14.3141C75.6028 15.0024 75.1072 15.9799 74.9144 17.2465H83.753ZM108.749 7.7058C111.448 7.7058 113.595 8.5869 115.192 10.3491C116.817 12.0838 117.629 14.4793 117.629 17.5356V31H110.608V18.4856C110.608 16.9436 110.209 15.7459 109.41 14.8923C108.612 14.0387 107.538 13.612 106.189 13.612C104.839 13.612 103.766 14.0387 102.967 14.8923C102.169 15.7459 101.769 16.9436 101.769 18.4856V31H94.7067V7.95361H101.769V11.0099C102.485 9.99116 103.449 9.19266 104.66 8.61444C105.872 8.00868 107.235 7.7058 108.749 7.7058ZM135.382 25.0112V31H131.789C129.228 31 127.232 30.3805 125.8 29.1414C124.368 27.8748 123.652 25.8235 123.652 22.9875V13.8185H120.844V7.95361H123.652V2.33657H130.715V7.95361H135.341V13.8185H130.715V23.0701C130.715 23.7584 130.88 24.254 131.21 24.5569C131.541 24.8598 132.091 25.0112 132.862 25.0112H135.382ZM149.806 31.3304C147.549 31.3304 145.511 30.8486 143.694 29.8849C141.904 28.9211 140.486 27.5444 139.44 25.7547C138.421 23.9649 137.912 21.8723 137.912 19.4768C137.912 17.1088 138.435 15.03 139.481 13.2402C140.527 11.423 141.959 10.0325 143.776 9.06876C145.594 8.10505 147.631 7.62319 149.889 7.62319C152.147 7.62319 154.184 8.10505 156.002 9.06876C157.819 10.0325 159.251 11.423 160.297 13.2402C161.343 15.03 161.867 17.1088 161.867 19.4768C161.867 21.8448 161.33 23.9374 160.256 25.7547C159.209 27.5444 157.764 28.9211 155.919 29.8849C154.102 30.8486 152.064 31.3304 149.806 31.3304ZM149.806 25.2178C151.156 25.2178 152.298 24.7221 153.235 23.7309C154.198 22.7396 154.68 21.3216 154.68 19.4768C154.68 17.632 154.212 16.214 153.276 15.2227C152.367 14.2315 151.238 13.7359 149.889 13.7359C148.512 13.7359 147.37 14.2315 146.461 15.2227C145.552 16.1864 145.098 17.6045 145.098 19.4768C145.098 21.3216 145.539 22.7396 146.42 23.7309C147.328 24.7221 148.457 25.2178 149.806 25.2178ZM172.676 11.7947C173.502 10.5281 174.535 9.53684 175.774 8.82095C177.013 8.07752 178.389 7.7058 179.904 7.7058V15.1814H177.963C176.2 15.1814 174.879 15.5669 173.998 16.3379C173.117 17.0813 172.676 18.403 172.676 20.3028V31H165.613V7.95361H172.676V11.7947Z" fill="#E1E2E2"/>
</g>
<defs>
<filter id="filter0_d_3_11" x="0.230286" y="0.230164" width="183.674" height="39.3481" filterUnits="userSpaceOnUse" color-interpolation-filters="sRGB">
<feFlood flood-opacity="0" result="BackgroundImageFix"/>
<feColorMatrix in="SourceAlpha" type="matrix" values="0 0 0 0 0 0 0 0 0 0 0 0 0 0 0 0 0 0 127 0" result="hardAlpha"/>
<feOffset dy="4"/>
<feGaussianBlur stdDeviation="2"/>
<feComposite in2="hardAlpha" operator="out"/>
<feColorMatrix type="matrix" values="0 0 0 0 0 0 0 0 0 0 0 0 0 0 0 0 0 0 0.25 0"/>
<feBlend mode="normal" in2="BackgroundImageFix" result="effect1_dropShadow_3_11"/>
<feBlend mode="normal" in="SourceGraphic" in2="effect1_dropShadow_3_11" result="shape"/>
</filter>
</defs>
</svg>
