<svg width="92" height="15" viewBox="0 0 92 15" fill="none" xmlns="http://www.w3.org/2000/svg">
<path d="M8 0L9.79611 5.52786H15.6085L10.9062 8.94427L12.7023 14.4721L8 11.0557L3.29772 14.4721L5.09383 8.94427L0.391548 5.52786H6.20389L8 0Z" fill="#FB8122"/>
<path d="M26.9655 0L28.7616 5.52786H34.574L29.8717 8.94427L31.6678 14.4721L26.9655 11.0557L22.2632 14.4721L24.0593 8.94427L19.3571 5.52786H25.1694L26.9655 0Z" fill="#FB8122"/>
<path d="M45.931 0L47.7271 5.52786H53.5395L48.8372 8.94427L50.6333 14.4721L45.931 11.0557L41.2287 14.4721L43.0249 8.94427L38.3226 5.52786H44.1349L45.931 0Z" fill="#FB8122"/>
<path d="M64.8965 0L66.6927 5.52786H72.505L67.8027 8.94427L69.5988 14.4721L64.8965 11.0557L60.1943 14.4721L61.9904 8.94427L57.2881 5.52786H63.1004L64.8965 0Z" fill="#FB8122"/>
<path d="M83.8621 0L85.6582 5.52786H91.4705L86.7682 8.94427L88.5643 14.4721L83.8621 11.0557L79.1598 14.4721L80.9559 8.94427L76.2536 5.52786H82.0659L83.8621 0Z" fill="#C4C4C4"/>
</svg>
